0 Tempo 758054
3471 Tempo 400000
7268 Tempo 600000

0 On ch=1 n=43 v=20
480 Off ch=1 n=43 v=82
480 On ch=1 n=43 v=20
960 Off ch=1 n=43 v=82
960 On ch=1 n=43 v=20
1440 Off ch=1 n=43 v=82
1440 On ch=1 n=43 v=20
1920 Off ch=1 n=43 v=82
1920 On ch=1 n=43 v=20
1920 On ch=1 n=71 v=100
2160 Off ch=1 n=71 v=53
2160 On ch=1 n=71 v=100
2400 Off ch=1 n=43 v=82
2400 Off ch=1 n=71 v=59
2400 On ch=1 n=43 v=20
2400 On ch=1 n=71 v=100
2880 Off ch=1 n=43 v=82
2880 Off ch=1 n=71 v=70
2880 On ch=1 n=43 v=20
2880 On ch=1 n=71 v=100
3120 Off ch=1 n=71 v=42
3120 On ch=1 n=71 v=100
3360 Off ch=1 n=43 v=82
3360 Off ch=1 n=71 v=61
3360 On ch=1 n=43 v=20
3360 On ch=1 n=71 v=127
3840 Off ch=1 n=43 v=82
3840 Off ch=1 n=71 v=67
3840 On ch=1 n=43 v=20
3840 On ch=1 n=71 v=110
3840 On ch=1 n=79 v=21
4080 Off ch=1 n=71 v=99
4080 On ch=1 n=74 v=110
4320 Off ch=1 n=43 v=82
4320 Off ch=1 n=74 v=55
4320 On ch=1 n=43 v=20
4320 On ch=1 n=67 v=110
4680 Off ch=1 n=67 v=50
4680 On ch=1 n=69 v=110
4800 Off ch=1 n=43 v=82
4800 Off ch=1 n=69 v=38
4800 On ch=1 n=43 v=20
4800 On ch=1 n=71 v=110
5280 Off ch=1 n=43 v=82
5280 On ch=1 n=43 v=20
5760 Off ch=1 n=71 v=46
5760 Off ch=1 n=43 v=82
5760 On ch=1 n=43 v=20
5760 On ch=1 n=72 v=110
6000 Off ch=1 n=72 v=52
6000 On ch=1 n=72 v=110
6240 Off ch=1 n=43 v=82
6240 On ch=1 n=43 v=20
6720 Off ch=1 n=72 v=52
6720 Off ch=1 n=43 v=82
6720 On ch=1 n=43 v=20
6720 On ch=1 n=71 v=110
6960 Off ch=1 n=71 v=88
6960 On ch=1 n=71 v=110
7200 Off ch=1 n=79 v=82
7200 Off ch=1 n=43 v=82
7200 Off ch=1 n=71 v=67
7200 On ch=1 n=43 v=20
7200 On ch=1 n=71 v=127
7680 Off ch=1 n=43 v=82
7680 Off ch=1 n=71 v=23
7680 On ch=1 n=43 v=20
7680 On ch=1 n=69 v=100
7920 Off ch=1 n=69 v=67
7920 On ch=1 n=69 v=100
8160 Off ch=1 n=43 v=82
8160 Off ch=1 n=69 v=57
8160 On ch=1 n=43 v=20
8160 On ch=1 n=69 v=100
8400 Off ch=1 n=69 v=54
8400 On ch=1 n=71 v=100
8640 Off ch=1 n=43 v=82
8640 Off ch=1 n=71 v=57
8640 On ch=1 n=43 v=20
8640 On ch=1 n=69 v=100
9120 Off ch=1 n=43 v=82
9120 Off ch=1 n=69 v=47
9120 On ch=1 n=43 v=20
9120 On ch=1 n=74 v=100
9600 Off ch=1 n=43 v=82
9600 Off ch=1 n=74 v=46
9600 On ch=1 n=43 v=20
9600 On ch=1 n=71 v=100
9840 Off ch=1 n=71 v=94
9840 On ch=1 n=71 v=100
10080 Off ch=1 n=43 v=82
10080 Off ch=1 n=71 v=67
10080 On ch=1 n=43 v=20
10080 On ch=1 n=71 v=100
10560 Off ch=1 n=43 v=82
10560 Off ch=1 n=71 v=73
10560 On ch=1 n=43 v=20
10560 On ch=1 n=71 v=100
10800 Off ch=1 n=71 v=94
10800 On ch=1 n=71 v=100
11040 Off ch=1 n=43 v=82
11040 Off ch=1 n=71 v=84
11040 On ch=1 n=43 v=20
11040 On ch=1 n=71 v=100
11520 Off ch=1 n=43 v=82
11520 Off ch=1 n=71 v=88
11520 On ch=1 n=43 v=20
11520 On ch=1 n=71 v=100
11760 Off ch=1 n=71 v=69
11760 On ch=1 n=74 v=100
12000 Off ch=1 n=43 v=82
12000 Off ch=1 n=74 v=39
12000 On ch=1 n=43 v=20
12000 On ch=1 n=67 v=100
12360 Off ch=1 n=67 v=28
12360 On ch=1 n=69 v=100
12480 Off ch=1 n=43 v=82
12480 Off ch=1 n=69 v=46
12480 On ch=1 n=43 v=20
12480 On ch=1 n=71 v=100
12960 Off ch=1 n=43 v=82
12960 On ch=1 n=43 v=20
13440 Off ch=1 n=71 v=54
13440 Off ch=1 n=43 v=82
13440 On ch=1 n=43 v=20
13440 On ch=1 n=72 v=100
13680 Off ch=1 n=72 v=47
13680 On ch=1 n=72 v=100
13920 Off ch=1 n=43 v=82
13920 Off ch=1 n=72 v=52
13920 On ch=1 n=43 v=20
13920 On ch=1 n=72 v=100
14400 Off ch=1 n=43 v=82
14400 Off ch=1 n=72 v=30
14400 On ch=1 n=43 v=20
14400 On ch=1 n=71 v=100
14640 Off ch=1 n=71 v=55
14640 On ch=1 n=71 v=100
14880 Off ch=1 n=43 v=82
14880 Off ch=1 n=71 v=55
14880 On ch=1 n=43 v=20
14880 On ch=1 n=71 v=100
15360 Off ch=1 n=43 v=82
15360 Off ch=1 n=71 v=35
15360 On ch=1 n=43 v=20
15360 On ch=1 n=74 v=100
15600 Off ch=1 n=74 v=54
15600 On ch=1 n=74 v=100
15840 Off ch=1 n=43 v=82
15840 Off ch=1 n=74 v=66
15840 On ch=1 n=43 v=20
15840 On ch=1 n=72 v=100
16080 On ch=1 n=69 v=100
16200 Off ch=1 n=72 v=40
16320 Off ch=1 n=43 v=82
16320 Off ch=1 n=69 v=37
16320 On ch=1 n=43 v=20
16320 On ch=1 n=67 v=100
16800 Off ch=1 n=43 v=82
16800 On ch=1 n=43 v=20
17280 Off ch=1 n=67 v=108
17280 Off ch=1 n=43 v=82
17280 On ch=1 n=43 v=20
17760 Off ch=1 n=43 v=82
17760 On ch=1 n=43 v=20
18240 Off ch=1 n=43 v=82
18240 On ch=1 n=43 v=20
18720 Off ch=1 n=43 v=82
18720 On ch=1 n=43 v=20
19200 Off ch=1 n=43 v=82
19200 On ch=1 n=43 v=20
19200 On ch=1 n=71 v=100
19440 Off ch=1 n=71 v=53
19440 On ch=1 n=71 v=100
19680 Off ch=1 n=43 v=82
19680 Off ch=1 n=71 v=59
19680 On ch=1 n=43 v=20
19680 On ch=1 n=71 v=100
20160 Off ch=1 n=43 v=82
20160 Off ch=1 n=71 v=70
20160 On ch=1 n=43 v=20
20160 On ch=1 n=71 v=100
20400 Off ch=1 n=71 v=42
20400 On ch=1 n=71 v=100
20640 Off ch=1 n=43 v=82
20640 Off ch=1 n=71 v=61
20640 On ch=1 n=43 v=20
20640 On ch=1 n=71 v=100
21120 Off ch=1 n=43 v=82
21120 Off ch=1 n=71 v=67
21120 On ch=1 n=43 v=20
21120 On ch=1 n=71 v=100
21360 Off ch=1 n=71 v=99
21360 On ch=1 n=74 v=100
21600 Off ch=1 n=43 v=82
21600 Off ch=1 n=74 v=55
21600 On ch=1 n=43 v=20
21600 On ch=1 n=67 v=100
21960 Off ch=1 n=67 v=50
21960 On ch=1 n=69 v=100
22080 Off ch=1 n=43 v=82
22080 Off ch=1 n=69 v=38
22080 On ch=1 n=43 v=20
22080 On ch=1 n=71 v=100
22560 Off ch=1 n=43 v=82
22560 On ch=1 n=43 v=20
23040 Off ch=1 n=71 v=46
23040 Off ch=1 n=43 v=82
23040 On ch=1 n=43 v=20
23040 On ch=1 n=72 v=100
23280 Off ch=1 n=72 v=52
23280 On ch=1 n=72 v=100
23520 Off ch=1 n=43 v=82
23520 On ch=1 n=43 v=20
24000 Off ch=1 n=72 v=52
24000 Off ch=1 n=43 v=82
24000 On ch=1 n=43 v=20
24000 On ch=1 n=71 v=100
24240 Off ch=1 n=71 v=88
24240 On ch=1 n=71 v=100
24480 Off ch=1 n=43 v=82
24480 Off ch=1 n=71 v=67
24480 On ch=1 n=43 v=20
24480 On ch=1 n=71 v=100
24960 Off ch=1 n=43 v=82
24960 Off ch=1 n=71 v=23
24960 On ch=1 n=43 v=20
24960 On ch=1 n=69 v=100
25200 Off ch=1 n=69 v=67
25200 On ch=1 n=69 v=100
25440 Off ch=1 n=43 v=82
25440 Off ch=1 n=69 v=57
25440 On ch=1 n=43 v=20
25440 On ch=1 n=69 v=100
25680 Off ch=1 n=69 v=54
25680 On ch=1 n=71 v=100
25920 Off ch=1 n=43 v=82
25920 Off ch=1 n=71 v=57
25920 On ch=1 n=43 v=20
25920 On ch=1 n=69 v=100
26400 Off ch=1 n=43 v=82
26400 Off ch=1 n=69 v=47
26400 On ch=1 n=43 v=20
26400 On ch=1 n=74 v=100
26880 Off ch=1 n=43 v=82
26880 Off ch=1 n=74 v=46
26880 On ch=1 n=43 v=20
26880 On ch=1 n=71 v=100
27120 Off ch=1 n=71 v=94
27120 On ch=1 n=71 v=100
27360 Off ch=1 n=43 v=82
27360 Off ch=1 n=71 v=67
27360 On ch=1 n=43 v=20
27360 On ch=1 n=71 v=100
27840 Off ch=1 n=43 v=82
27840 Off ch=1 n=71 v=73
27840 On ch=1 n=43 v=20
27840 On ch=1 n=71 v=100
28080 Off ch=1 n=71 v=94
28080 On ch=1 n=71 v=100
28320 Off ch=1 n=43 v=82
28320 Off ch=1 n=71 v=84
28320 On ch=1 n=43 v=20
28320 On ch=1 n=71 v=100
28800 Off ch=1 n=43 v=82
28800 Off ch=1 n=71 v=88
28800 On ch=1 n=43 v=20
28800 On ch=1 n=71 v=100
29040 Off ch=1 n=71 v=69
29040 On ch=1 n=74 v=100
29280 Off ch=1 n=43 v=82
29280 Off ch=1 n=74 v=39
29280 On ch=1 n=43 v=20
29280 On ch=1 n=67 v=100
29640 Off ch=1 n=67 v=28
29640 On ch=1 n=69 v=100
29760 Off ch=1 n=43 v=82
29760 Off ch=1 n=69 v=46
29760 On ch=1 n=43 v=20
29760 On ch=1 n=71 v=100
30240 Off ch=1 n=43 v=82
30240 On ch=1 n=43 v=20
30720 Off ch=1 n=71 v=54
30720 Off ch=1 n=43 v=82
30720 On ch=1 n=43 v=20
30720 On ch=1 n=72 v=100
30960 Off ch=1 n=72 v=47
30960 On ch=1 n=72 v=100
31200 Off ch=1 n=43 v=82
31200 Off ch=1 n=72 v=52
31200 On ch=1 n=43 v=20
31200 On ch=1 n=72 v=100
31680 Off ch=1 n=43 v=82
31680 Off ch=1 n=72 v=30
31680 On ch=1 n=43 v=20
31680 On ch=1 n=71 v=100
31920 Off ch=1 n=71 v=55
31920 On ch=1 n=71 v=100
32160 Off ch=1 n=43 v=82
32160 Off ch=1 n=71 v=55
32160 On ch=1 n=43 v=20
32160 On ch=1 n=71 v=100
32640 Off ch=1 n=43 v=82
32640 Off ch=1 n=71 v=35
32640 On ch=1 n=43 v=20
32640 On ch=1 n=74 v=100
32880 Off ch=1 n=74 v=54
32880 On ch=1 n=74 v=100
33120 Off ch=1 n=43 v=82
33120 Off ch=1 n=74 v=66
33120 On ch=1 n=43 v=20
33120 On ch=1 n=72 v=100
33360 On ch=1 n=69 v=100
33480 Off ch=1 n=72 v=40
33600 Off ch=1 n=43 v=82
33600 Off ch=1 n=69 v=37
33600 On ch=1 n=43 v=20
33600 On ch=1 n=67 v=100
34080 Off ch=1 n=43 v=82
34080 On ch=1 n=43 v=20
34560 Off ch=1 n=67 v=108
34560 Off ch=1 n=43 v=82
