0 On ch=1 n=60 v=100
1920 On ch=1 n=60 v=0
1920 On ch=1 n=62 v=100
3840 On ch=1 n=62 v=0
3840 On ch=1 n=64 v=100
5760 On ch=1 n=64 v=0
5760 On ch=1 n=65 v=100
7680 On ch=1 n=65 v=0
7680 On ch=1 n=66 v=100
9600 On ch=1 n=66 v=0
9600 On ch=1 n=67 v=100
11520 On ch=1 n=67 v=0
11520 On ch=1 n=68 v=100
13440 On ch=1 n=68 v=0
13440 On ch=1 n=69 v=100
15360 On ch=1 n=69 v=0
15360 On ch=1 n=70 v=100
17280 On ch=1 n=70 v=0
17280 On ch=1 n=71 v=100
19200 On ch=1 n=71 v=0
19200 On ch=1 n=72 v=100
21120 On ch=1 n=72 v=0
