0 On ch=1 n=60 v=100
1920 Off ch=1 n=60 v=64
1920 On ch=1 n=61 v=100
3840 Off ch=1 n=61 v=64
3840 On ch=1 n=62 v=100
5760 Off ch=1 n=62 v=64
5760 On ch=1 n=63 v=100
7680 Off ch=1 n=63 v=64
7680 On ch=1 n=64 v=100
9600 Off ch=1 n=64 v=64
9600 On ch=1 n=65 v=100
11520 Off ch=1 n=65 v=64
11520 On ch=1 n=66 v=100
13440 Off ch=1 n=66 v=64
13440 On ch=1 n=67 v=100
15360 Off ch=1 n=67 v=64
15360 On ch=1 n=68 v=100
17280 Off ch=1 n=68 v=64
17280 On ch=1 n=69 v=100
19200 Off ch=1 n=69 v=64
19200 On ch=1 n=70 v=100
21120 Off ch=1 n=70 v=64
21120 On ch=1 n=71 v=100
23040 Off ch=1 n=71 v=64
23040 On ch=1 n=72 v=100
24960 Off ch=1 n=72 v=64
24960 On ch=1 n=73 v=127
26880 Off ch=1 n=73 v=64
26880 On ch=1 n=74 v=1
28800 Off ch=1 n=74 v=64
