
0 Tempo 600000
19200 Tempo 705882
26880 Tempo 461538
34560 Tempo 375000
38474 Tempo 550458
42253 Tempo 375000
46080 Tempo 810810
49920 Tempo 387096
61440 Tempo 666666
63359 Tempo 1000000

1901 On ch=1 n=50 v=80
1904 On ch=1 n=55 v=78
1910 On ch=1 n=59 v=75
1925 On ch=1 n=71 v=81
2019 Off ch=1 n=71 v=94
2179 On ch=1 n=71 v=85
2242 Off ch=1 n=71 v=92
2433 On ch=1 n=71 v=107
2788 Off ch=1 n=71 v=92
2908 On ch=1 n=71 v=98
2991 Off ch=1 n=71 v=106
3139 On ch=1 n=71 v=81
3212 Off ch=1 n=71 v=103
3373 On ch=1 n=71 v=101
3717 Off ch=1 n=71 v=101
3820 On ch=1 n=71 v=98
4043 Off ch=1 n=71 v=63
4060 On ch=1 n=74 v=78
4232 Off ch=1 n=74 v=38
4300 On ch=1 n=67 v=101
4654 Off ch=1 n=67 v=30
4672 On ch=1 n=69 v=80
4759 Off ch=1 n=69 v=72
4798 On ch=1 n=71 v=98
5495 Off ch=1 n=59 v=73
5509 Off ch=1 n=50 v=32
5529 Off ch=1 n=55 v=46
5531 Off ch=1 n=71 v=61
5752 On ch=1 n=48 v=83
5755 On ch=1 n=52 v=81
5762 On ch=1 n=55 v=81
5769 On ch=1 n=72 v=96
5886 Off ch=1 n=72 v=94
5997 On ch=1 n=72 v=89
6104 Off ch=1 n=72 v=94
6247 On ch=1 n=72 v=75
6535 Off ch=1 n=48 v=29
6557 Off ch=1 n=52 v=84
6564 Off ch=1 n=55 v=69
6629 Off ch=1 n=72 v=42
6724 On ch=1 n=59 v=71
6726 On ch=1 n=50 v=70
6730 On ch=1 n=55 v=66
6746 On ch=1 n=71 v=83
6843 Off ch=1 n=71 v=88
6961 On ch=1 n=71 v=98
7049 Off ch=1 n=71 v=99
7176 On ch=1 n=71 v=107
7447 Off ch=1 n=55 v=5
7477 Off ch=1 n=59 v=43
7519 Off ch=1 n=50 v=18
7541 Off ch=1 n=71 v=55
7646 On ch=1 n=57 v=75
7649 On ch=1 n=50 v=71
7649 On ch=1 n=54 v=99
7656 On ch=1 n=69 v=104
7756 Off ch=1 n=69 v=88
7896 On ch=1 n=69 v=107
7987 Off ch=1 n=69 v=79
8142 On ch=1 n=69 v=114
8355 Off ch=1 n=69 v=30
8394 On ch=1 n=71 v=77
8576 Off ch=1 n=71 v=56
8630 On ch=1 n=69 v=101
9052 Off ch=1 n=69 v=75
9100 On ch=1 n=74 v=98
9412 Off ch=1 n=50 v=12
9426 Off ch=1 n=74 v=82
9427 Off ch=1 n=54 v=63
9435 Off ch=1 n=57 v=55
9585 On ch=1 n=71 v=107
9586 On ch=1 n=50 v=72
9589 On ch=1 n=59 v=87
9596 On ch=1 n=55 v=71
9691 Off ch=1 n=71 v=99
9823 On ch=1 n=71 v=114
9915 Off ch=1 n=71 v=96
10036 On ch=1 n=71 v=114
10405 Off ch=1 n=71 v=84
10530 On ch=1 n=71 v=107
10620 Off ch=1 n=71 v=94
10753 On ch=1 n=71 v=107
10856 Off ch=1 n=71 v=77
10999 On ch=1 n=71 v=110
11362 Off ch=1 n=71 v=94
11503 On ch=1 n=71 v=114
11731 Off ch=1 n=71 v=88
11743 On ch=1 n=74 v=89
11973 Off ch=1 n=74 v=92
11998 On ch=1 n=67 v=96
12343 Off ch=1 n=67 v=38
12372 On ch=1 n=69 v=71
12444 Off ch=1 n=69 v=73
12485 On ch=1 n=71 v=89
13268 Off ch=1 n=55 v=30
13272 Off ch=1 n=59 v=46
13293 Off ch=1 n=50 v=52
13327 Off ch=1 n=71 v=38
13451 On ch=1 n=48 v=78
13454 On ch=1 n=52 v=78
13460 On ch=1 n=55 v=53
13478 On ch=1 n=72 v=91
13584 Off ch=1 n=72 v=101
13700 On ch=1 n=72 v=93
13794 Off ch=1 n=72 v=103
13932 On ch=1 n=72 v=96
14226 Off ch=1 n=48 v=30
14241 Off ch=1 n=52 v=51
14241 Off ch=1 n=55 v=62
14316 Off ch=1 n=72 v=65
14414 On ch=1 n=55 v=74
14417 On ch=1 n=59 v=69
14421 On ch=1 n=50 v=69
14431 On ch=1 n=71 v=81
14526 Off ch=1 n=71 v=88
14649 On ch=1 n=71 v=89
14736 Off ch=1 n=71 v=88
14866 On ch=1 n=71 v=77
15146 Off ch=1 n=55 v=50
15148 Off ch=1 n=59 v=37
15184 Off ch=1 n=71 v=40
15190 Off ch=1 n=50 v=55
15325 On ch=1 n=54 v=95
15328 On ch=1 n=57 v=71
15330 On ch=1 n=50 v=71
15345 On ch=1 n=74 v=85
15438 Off ch=1 n=74 v=94
15575 On ch=1 n=74 v=83
15761 Off ch=1 n=74 v=69
15839 On ch=1 n=72 v=75
16022 Off ch=1 n=72 v=51
16061 On ch=1 n=69 v=58
16135 Off ch=1 n=54 v=63
16149 Off ch=1 n=57 v=51
16151 Off ch=1 n=50 v=29
16220 Off ch=1 n=69 v=38
16290 On ch=1 n=50 v=55
16291 On ch=1 n=67 v=81
16295 On ch=1 n=59 v=67
16306 On ch=1 n=55 v=52
17046 Off ch=1 n=67 v=62
17069 Off ch=1 n=50 v=29
17078 Off ch=1 n=55 v=48
17086 Off ch=1 n=59 v=50
17250 On ch=1 n=59 v=71
17252 On ch=1 n=55 v=60
17256 On ch=1 n=50 v=71
17257 On ch=1 n=71 v=78
17351 Off ch=1 n=71 v=66
17518 On ch=1 n=71 v=93
17593 Off ch=1 n=71 v=67
17748 On ch=1 n=71 v=98
18109 Off ch=1 n=71 v=82
18224 On ch=1 n=71 v=91
18314 Off ch=1 n=71 v=75
18457 On ch=1 n=71 v=91
18544 Off ch=1 n=71 v=70
18684 On ch=1 n=71 v=77
19044 Off ch=1 n=71 v=66
19187 On ch=1 n=71 v=91
19406 Off ch=1 n=71 v=61
19443 On ch=1 n=74 v=81
19588 Off ch=1 n=74 v=66
19669 On ch=1 n=67 v=87
20003 Off ch=1 n=67 v=56
20028 On ch=1 n=69 v=77
20122 Off ch=1 n=69 v=69
20154 On ch=1 n=71 v=91
20865 Off ch=1 n=59 v=22
20872 Off ch=1 n=50 v=18
20887 Off ch=1 n=55 v=49
20924 Off ch=1 n=71 v=42
21107 On ch=1 n=52 v=104
21108 On ch=1 n=55 v=78
21114 On ch=1 n=48 v=75
21118 On ch=1 n=72 v=89
21225 Off ch=1 n=72 v=103
21340 On ch=1 n=72 v=93
21440 Off ch=1 n=72 v=103
21572 On ch=1 n=72 v=93
21894 Off ch=1 n=48 v=36
21911 Off ch=1 n=52 v=66
21921 Off ch=1 n=55 v=73
21944 Off ch=1 n=72 v=82
22065 On ch=1 n=50 v=71
22066 On ch=1 n=55 v=70
22070 On ch=1 n=59 v=71
22071 On ch=1 n=71 v=85
22167 Off ch=1 n=71 v=86
22305 On ch=1 n=71 v=96
22397 Off ch=1 n=71 v=88
22533 On ch=1 n=71 v=96
22836 Off ch=1 n=55 v=3
22855 Off ch=1 n=59 v=38
22900 Off ch=1 n=50 v=43
22904 Off ch=1 n=71 v=79
23021 On ch=1 n=54 v=99
23022 On ch=1 n=57 v=71
23029 On ch=1 n=69 v=93
23031 On ch=1 n=50 v=67
23118 Off ch=1 n=69 v=84
23284 On ch=1 n=69 v=96
23383 Off ch=1 n=69 v=88
23519 On ch=1 n=69 v=93
23721 Off ch=1 n=69 v=32
23734 On ch=1 n=71 v=91
23917 Off ch=1 n=71 v=14
23966 On ch=1 n=69 v=91
24409 Off ch=1 n=69 v=52
24454 On ch=1 n=74 v=77
24752 Off ch=1 n=54 v=61
24753 Off ch=1 n=74 v=59
24754 Off ch=1 n=50 v=31
24759 Off ch=1 n=57 v=42
24949 On ch=1 n=59 v=70
24950 On ch=1 n=55 v=66
24952 On ch=1 n=50 v=71
24953 On ch=1 n=71 v=104
25046 Off ch=1 n=71 v=96
25191 On ch=1 n=71 v=107
25273 Off ch=1 n=71 v=82
25414 On ch=1 n=71 v=107
25750 Off ch=1 n=71 v=82
25907 On ch=1 n=71 v=93
25997 Off ch=1 n=71 v=86
26141 On ch=1 n=71 v=98
26238 Off ch=1 n=71 v=84
26378 On ch=1 n=71 v=107
26734 Off ch=1 n=71 v=84
26855 On ch=1 n=71 v=114
27076 Off ch=1 n=71 v=86
27097 On ch=1 n=74 v=85
27252 Off ch=1 n=74 v=48
27328 On ch=1 n=67 v=80
27680 Off ch=1 n=67 v=35
27685 On ch=1 n=69 v=72
27796 Off ch=1 n=69 v=56
27826 On ch=1 n=71 v=74
28567 Off ch=1 n=55 v=45
28568 Off ch=1 n=59 v=42
28578 Off ch=1 n=50 v=21
28625 Off ch=1 n=71 v=38
28798 On ch=1 n=52 v=78
28803 On ch=1 n=55 v=63
28805 On ch=1 n=48 v=65
28819 On ch=1 n=72 v=91
28913 Off ch=1 n=72 v=101
29044 On ch=1 n=72 v=91
29136 Off ch=1 n=72 v=92
29275 On ch=1 n=72 v=91
29582 Off ch=1 n=52 v=33
29583 Off ch=1 n=48 v=36
29591 Off ch=1 n=55 v=57
29643 Off ch=1 n=72 v=79
29732 On ch=1 n=50 v=71
29743 On ch=1 n=59 v=59
29750 On ch=1 n=55 v=50
29759 On ch=1 n=71 v=81
29849 Off ch=1 n=71 v=92
29976 On ch=1 n=71 v=93
30061 Off ch=1 n=71 v=82
30219 On ch=1 n=71 v=62
30492 Off ch=1 n=55 v=59
30493 Off ch=1 n=59 v=50
30521 Off ch=1 n=50 v=42
30535 Off ch=1 n=71 v=51
30682 On ch=1 n=50 v=74
30682 On ch=1 n=54 v=82
30689 On ch=1 n=57 v=64
30709 On ch=1 n=74 v=98
30811 Off ch=1 n=74 v=106
30930 On ch=1 n=74 v=93
31120 Off ch=1 n=74 v=127
31191 On ch=1 n=72 v=81
31390 Off ch=1 n=72 v=57
31426 On ch=1 n=69 v=65
31473 Off ch=1 n=50 v=27
31493 Off ch=1 n=54 v=45
31497 Off ch=1 n=57 v=47
31600 Off ch=1 n=69 v=31
31659 On ch=1 n=50 v=62
31661 On ch=1 n=55 v=67
31662 On ch=1 n=59 v=62
31670 On ch=1 n=67 v=83
32384 Off ch=1 n=50 v=24
32386 Off ch=1 n=67 v=52
32399 Off ch=1 n=59 v=49
32404 Off ch=1 n=55 v=45
32629 On ch=1 n=50 v=67
32630 On ch=1 n=59 v=61
32635 On ch=1 n=71 v=83
32636 On ch=1 n=55 v=72
32742 Off ch=1 n=71 v=70
32911 On ch=1 n=71 v=85
33013 Off ch=1 n=71 v=77
33161 On ch=1 n=71 v=96
33500 Off ch=1 n=71 v=94
33594 On ch=1 n=71 v=87
33703 Off ch=1 n=71 v=73
33832 On ch=1 n=71 v=93
33942 Off ch=1 n=71 v=80
34069 On ch=1 n=71 v=104
34408 Off ch=1 n=71 v=80
34538 On ch=1 n=71 v=91
34750 Off ch=1 n=71 v=79
34788 On ch=1 n=74 v=70
34930 Off ch=1 n=74 v=54
35003 On ch=1 n=67 v=83
35376 Off ch=1 n=67 v=38
35386 On ch=1 n=69 v=69
35494 Off ch=1 n=69 v=36
35512 On ch=1 n=71 v=77
36161 Off ch=1 n=55 v=38
36178 Off ch=1 n=59 v=54
36193 Off ch=1 n=50 v=32
36212 Off ch=1 n=71 v=23
36460 On ch=1 n=55 v=74
36462 On ch=1 n=52 v=91
36465 On ch=1 n=72 v=98
36471 On ch=1 n=48 v=72
36562 Off ch=1 n=72 v=94
36698 On ch=1 n=72 v=93
36787 Off ch=1 n=72 v=99
36933 On ch=1 n=72 v=85
37222 Off ch=1 n=48 v=23
37226 Off ch=1 n=52 v=35
37240 Off ch=1 n=55 v=56
37282 Off ch=1 n=72 v=57
37409 On ch=1 n=50 v=67
37413 On ch=1 n=55 v=67
37413 On ch=1 n=59 v=67
37424 On ch=1 n=71 v=93
37516 Off ch=1 n=71 v=86
37650 On ch=1 n=71 v=93
37736 Off ch=1 n=71 v=92
37896 On ch=1 n=71 v=93
38184 Off ch=1 n=55 v=23
38189 Off ch=1 n=59 v=47
38194 Off ch=1 n=50 v=36
38214 Off ch=1 n=71 v=47
38353 On ch=1 n=54 v=95
38355 On ch=1 n=57 v=81
38360 On ch=1 n=69 v=91
38361 On ch=1 n=50 v=69
38469 Off ch=1 n=69 v=67
38601 On ch=1 n=69 v=87
38710 Off ch=1 n=69 v=67
38866 On ch=1 n=69 v=89
39070 Off ch=1 n=69 v=45
39094 On ch=1 n=71 v=87
39279 Off ch=1 n=71 v=14
39331 On ch=1 n=69 v=89
39752 Off ch=1 n=69 v=57
39822 On ch=1 n=74 v=78
40089 Off ch=1 n=74 v=70
40090 Off ch=1 n=54 v=35
40095 Off ch=1 n=50 v=16
40112 Off ch=1 n=57 v=55
40295 On ch=1 n=59 v=81
40296 On ch=1 n=50 v=70
40304 On ch=1 n=55 v=66
40308 On ch=1 n=71 v=104
40389 Off ch=1 n=71 v=77
40552 On ch=1 n=71 v=87
40624 Off ch=1 n=71 v=86
40772 On ch=1 n=71 v=93
41116 Off ch=1 n=71 v=63
41274 On ch=1 n=71 v=104
41361 Off ch=1 n=71 v=86
41507 On ch=1 n=71 v=96
41599 Off ch=1 n=71 v=88
41743 On ch=1 n=71 v=107
42093 Off ch=1 n=71 v=72
42231 On ch=1 n=71 v=114
42447 Off ch=1 n=71 v=73
42472 On ch=1 n=74 v=89
42640 Off ch=1 n=74 v=34
42714 On ch=1 n=67 v=78
43059 On ch=1 n=69 v=75
43071 Off ch=1 n=67 v=24
43176 Off ch=1 n=69 v=46
43187 On ch=1 n=71 v=89
43791 Off ch=1 n=55 v=47
43792 Off ch=1 n=50 v=28
43794 Off ch=1 n=59 v=53
43943 Off ch=1 n=71 v=31
44145 On ch=1 n=52 v=65
44148 On ch=1 n=72 v=89
44151 On ch=1 n=48 v=64
44151 On ch=1 n=55 v=50
44246 Off ch=1 n=72 v=99
44382 On ch=1 n=72 v=83
44460 Off ch=1 n=72 v=92
44615 On ch=1 n=72 v=80
44888 Off ch=1 n=48 v=6
44931 Off ch=1 n=52 v=42
44941 Off ch=1 n=55 v=70
44989 Off ch=1 n=72 v=51
45110 On ch=1 n=55 v=70
45114 On ch=1 n=59 v=66
45115 On ch=1 n=50 v=60
45132 On ch=1 n=71 v=74
45216 Off ch=1 n=71 v=80
45360 On ch=1 n=71 v=87
45449 Off ch=1 n=71 v=72
45588 On ch=1 n=71 v=67
45838 Off ch=1 n=59 v=45
45838 Off ch=1 n=50 v=27
45844 Off ch=1 n=55 v=53
45893 Off ch=1 n=71 v=56
46026 On ch=1 n=50 v=71
46027 On ch=1 n=54 v=91
46037 On ch=1 n=57 v=70
46043 On ch=1 n=74 v=81
46140 Off ch=1 n=74 v=90
46277 On ch=1 n=74 v=83
46481 Off ch=1 n=74 v=56
46532 On ch=1 n=72 v=77
46738 Off ch=1 n=72 v=101
46764 On ch=1 n=69 v=81
46863 Off ch=1 n=54 v=43
46867 Off ch=1 n=50 v=3
46869 Off ch=1 n=57 v=45
46947 Off ch=1 n=69 v=29
47017 On ch=1 n=55 v=77
47020 On ch=1 n=59 v=77
47020 On ch=1 n=67 v=87
47023 On ch=1 n=50 v=56
47772 Off ch=1 n=67 v=52
47794 Off ch=1 n=59 v=53
47795 Off ch=1 n=55 v=61
47798 Off ch=1 n=50 v=27
47951 On ch=1 n=50 v=72
47962 On ch=1 n=59 v=52
47963 On ch=1 n=71 v=78
47964 On ch=1 n=55 v=66
48055 Off ch=1 n=71 v=67
48218 On ch=1 n=71 v=87
48296 Off ch=1 n=71 v=84
48463 On ch=1 n=71 v=80
48794 Off ch=1 n=71 v=88
48963 On ch=1 n=71 v=91
49037 Off ch=1 n=71 v=62
49197 On ch=1 n=71 v=101
49270 Off ch=1 n=71 v=54
49440 On ch=1 n=71 v=81
49775 Off ch=1 n=71 v=66
49907 On ch=1 n=71 v=78
50108 Off ch=1 n=71 v=49
50149 On ch=1 n=74 v=78
50302 Off ch=1 n=74 v=61
50377 On ch=1 n=67 v=91
50715 Off ch=1 n=67 v=35
50736 On ch=1 n=69 v=74
50839 Off ch=1 n=69 v=65
50858 On ch=1 n=71 v=83
51471 Off ch=1 n=55 v=63
51477 Off ch=1 n=59 v=58
51491 Off ch=1 n=50 v=24
51539 Off ch=1 n=71 v=51
51817 On ch=1 n=48 v=70
51825 On ch=1 n=52 v=74
51827 On ch=1 n=55 v=74
51835 On ch=1 n=72 v=85
51935 Off ch=1 n=72 v=90
52065 On ch=1 n=72 v=83
52155 Off ch=1 n=72 v=94
52297 On ch=1 n=72 v=83
52599 Off ch=1 n=48 v=18
52613 Off ch=1 n=52 v=62
52616 Off ch=1 n=55 v=52
52681 Off ch=1 n=72 v=63
52793 On ch=1 n=55 v=72
52796 On ch=1 n=50 v=62
52800 On ch=1 n=59 v=63
52807 On ch=1 n=71 v=77
52898 Off ch=1 n=71 v=88
53041 On ch=1 n=71 v=98
53122 Off ch=1 n=71 v=79
53266 On ch=1 n=71 v=93
53548 Off ch=1 n=59 v=28
53564 Off ch=1 n=55 v=41
53569 Off ch=1 n=50 v=32
53626 Off ch=1 n=71 v=61
53723 On ch=1 n=54 v=99
53726 On ch=1 n=57 v=78
53733 On ch=1 n=50 v=75
53744 On ch=1 n=69 v=81
53837 Off ch=1 n=69 v=69
53968 On ch=1 n=69 v=81
54063 Off ch=1 n=69 v=54
54216 On ch=1 n=69 v=87
54456 Off ch=1 n=69 v=34
54464 On ch=1 n=71 v=85
54660 Off ch=1 n=71 v=12
54706 On ch=1 n=69 v=67
55091 Off ch=1 n=69 v=49
55147 On ch=1 n=74 v=78
55476 Off ch=1 n=50 v=11
55481 Off ch=1 n=54 v=34
55486 Off ch=1 n=57 v=38
55510 Off ch=1 n=74 v=54
55652 On ch=1 n=71 v=98
55654 On ch=1 n=50 v=53
55655 On ch=1 n=59 v=71
55657 On ch=1 n=55 v=52
55750 Off ch=1 n=71 v=84
55902 On ch=1 n=71 v=91
55991 Off ch=1 n=71 v=82
56133 On ch=1 n=71 v=91
56487 Off ch=1 n=71 v=61
56617 On ch=1 n=71 v=83
56710 Off ch=1 n=71 v=84
56846 On ch=1 n=71 v=89
56942 Off ch=1 n=71 v=84
57079 On ch=1 n=71 v=96
57425 Off ch=1 n=71 v=50
57457 Off ch=1 n=59 v=46
57463 Off ch=1 n=50 v=18
57467 Off ch=1 n=55 v=41
57582 On ch=1 n=50 v=74
57589 On ch=1 n=71 v=104
57593 On ch=1 n=55 v=78
57594 On ch=1 n=59 v=67
57804 Off ch=1 n=71 v=58
57843 On ch=1 n=74 v=91
57999 Off ch=1 n=74 v=55
58065 On ch=1 n=67 v=83
58414 Off ch=1 n=67 v=24
58423 On ch=1 n=69 v=71
58523 Off ch=1 n=69 v=72
58553 On ch=1 n=71 v=93
59268 Off ch=1 n=55 v=29
59278 Off ch=1 n=59 v=55
59282 Off ch=1 n=71 v=53
59299 Off ch=1 n=50 v=46
59494 On ch=1 n=52 v=78
59498 On ch=1 n=55 v=65
59501 On ch=1 n=48 v=67
59512 On ch=1 n=72 v=87
59610 Off ch=1 n=72 v=92
59748 On ch=1 n=72 v=85
59826 Off ch=1 n=72 v=99
59987 On ch=1 n=72 v=81
60236 Off ch=1 n=48 v=19
60269 Off ch=1 n=52 v=42
60289 Off ch=1 n=55 v=53
60345 Off ch=1 n=72 v=38
60457 On ch=1 n=59 v=53
60458 On ch=1 n=55 v=57
60470 On ch=1 n=50 v=48
60476 On ch=1 n=71 v=71
60571 Off ch=1 n=71 v=88
60702 On ch=1 n=71 v=89
60783 Off ch=1 n=71 v=77
60926 On ch=1 n=71 v=87
61259 Off ch=1 n=59 v=38
61262 Off ch=1 n=55 v=73
61263 Off ch=1 n=50 v=42
61279 Off ch=1 n=71 v=39
61423 On ch=1 n=50 v=75
61424 On ch=1 n=54 v=104
61427 On ch=1 n=57 v=81
61446 On ch=1 n=74 v=87
61543 Off ch=1 n=74 v=99
61678 On ch=1 n=74 v=78
61858 Off ch=1 n=74 v=49
61931 On ch=1 n=72 v=65
62135 Off ch=1 n=72 v=82
62157 On ch=1 n=69 v=67
62219 Off ch=1 n=50 v=20
62226 Off ch=1 n=54 v=51
62234 Off ch=1 n=57 v=47
62314 Off ch=1 n=69 v=43
62391 On ch=1 n=50 v=57
62392 On ch=1 n=55 v=70
62395 On ch=1 n=59 v=65
62398 On ch=1 n=67 v=96
63094 Off ch=1 n=67 v=88
63118 Off ch=1 n=50 v=23
63120 Off ch=1 n=59 v=84
63127 Off ch=1 n=55 v=75
