
0 Tempo 500000                 start tempo

4371 Tempo 1407096

0 On ch=1 n=60 v=100                            00.000
960 Off ch=1 n=60 v=75
960 On ch=1 n=60 v=100                          02.000
1920 Off ch=1 n=60 v=75
1920 On ch=1 n=60 v=100                         03.000
2880 Off ch=1 n=60 v=75
2880 On ch=1 n=60 v=100                         04.000
3840 Off ch=1 n=60 v=75

3840 On ch=1 n=60 v=127                         05.000
 4371 Tempo 1407096           change tempo      04.553 second
4800 Off ch=1 n=60 v=75
4800 On ch=1 n=60 v=100                         05.810
5760 Off ch=1 n=60 v=75
5760 On ch=1 n=60 v=100                         08.624
6720 Off ch=1 n=60 v=75
6720 On ch=1 n=60 v=100                         11.438
7680 Off ch=1 n=60 v=75
7680 On ch=1 n=60 v=100                         14.252
8640 Off ch=1 n=60 v=75
8640 On ch=1 n=60 v=100                         17.066
9600 Off ch=1 n=60 v=75
9600 On ch=1 n=60 v=100                         19.881
10560 Off ch=1 n=60 v=75
10560 On ch=1 n=60 v=100                        22.695
11520 Off ch=1 n=60 v=75
11520 On ch=1 n=60 v=100                        25.509
12480 Off ch=1 n=60 v=75
12480 On ch=1 n=60 v=100                        28.323
13440 Off ch=1 n=60 v=75
13440 On ch=1 n=60 v=100                        31.137
14400 Off ch=1 n=60 v=75
14400 On ch=1 n=60 v=100                        33.952
15360 Off ch=1 n=60 v=75
