0 Tempo 500000
4371 Tempo 1407096
0 On ch=1 n=60 v=100
960 Off ch=1 n=60 v=75
960 On ch=1 n=60 v=100
1920 Off ch=1 n=60 v=75
1920 On ch=1 n=60 v=100
2880 Off ch=1 n=60 v=75
2880 On ch=1 n=60 v=100
3840 Off ch=1 n=60 v=75
3840 On ch=1 n=60 v=127
4800 Off ch=1 n=60 v=75
4800 On ch=1 n=60 v=100
5760 Off ch=1 n=60 v=75
5760 On ch=1 n=60 v=100
6720 Off ch=1 n=60 v=75
6720 On ch=1 n=60 v=100
7680 Off ch=1 n=60 v=75
7680 On ch=1 n=60 v=100
8640 Off ch=1 n=60 v=75
8640 On ch=1 n=60 v=100
9600 Off ch=1 n=60 v=75
9600 On ch=1 n=60 v=100
10560 Off ch=1 n=60 v=75
10560 On ch=1 n=60 v=100
11520 Off ch=1 n=60 v=75
11520 On ch=1 n=60 v=100
12480 Off ch=1 n=60 v=75
12480 On ch=1 n=60 v=100
13440 Off ch=1 n=60 v=75
13440 On ch=1 n=60 v=100
14400 Off ch=1 n=60 v=75
14400 On ch=1 n=60 v=100
15360 Off ch=1 n=60 v=75
